# xmcd CD database file
#
# Track frame offsets:
#	150
#	12483
#	23416
#	33268
#	45261
#	55171
#	64866
#	78551
#	91418
#	104953
#	116686
#	126198
#	136828
#	147531
#	158756
#	170076
#	182321
#	193681
#	205548
#
# Disc length: 2900 seconds
#
# Revision: 0
# Processed by: cddbd v1.5.1PL0 Copyright (c) Steve Scherf et al.
# Submitted via: CDex 1.51
#
DISCID=020b5213
DTITLE=Fausto Papetti - The definitive collection - CD 1
DYEAR=2002
DGENRE=Jazz
TTITLE0=Tema de Un lugar de verano
TTITLE1=Ligada a un granito de arena
TTITLE2=Caravana
TTITLE3=Nessuno al mondo
TTITLE4=Palabras
TTITLE5=Tentacion
TTITLE6=Mar encantado
TTITLE7=Flamingo
TTITLE8=Polvo de estrellas
TTITLE9=Verano violento
TTITLE10=Marea baja
TTITLE11=Perfidia
TTITLE12=Et maintenant
TTITLE13=Amado mio
TTITLE14=Il faut savoir
TTITLE15=Tabu
TTITLE16=Hay humo en tus ojos
TTITLE17=Georgia en mi mente
TTITLE18=La sombra de tu sonrisa
EXTD=YEAR: 2002
EXTT0=
EXTT1=
EXTT2=
EXTT3=
EXTT4=
EXTT5=
EXTT6=
EXTT7=
EXTT8=
EXTT9=
EXTT10=
EXTT11=
EXTT12=
EXTT13=
EXTT14=
EXTT15=
EXTT16=
EXTT17=
EXTT18=
PLAYORDER=
